<?xml version="1.0" encoding="UTF-8" standalone="no"?><!DOCTYPE svg PUBLIC "-//W3C//DTD SVG 1.1//EN" "http://www.w3.org/Graphics/SVG/1.1/DTD/svg11.dtd"><svg width="100%" height="100%" viewBox="0 0 1649 968" version="1.1" xmlns="http://www.w3.org/2000/svg" xmlns:xlink="http://www.w3.org/1999/xlink" xml:space="preserve" xmlns:serif="http://www.serif.com/" style="fill-rule:evenodd;clip-rule:evenodd;"><g id="Layer-1" serif:id="Layer 1"><path d="M1292.52,719.744c-0,0 202.191,-65.697 136.497,-267.89l-91.919,-282.9c0,-0 -65.7,-202.191 -267.891,-136.497l-282.959,91.94c0,0 -202.194,65.697 -136.5,267.891l91.925,282.894c0,-0 65.694,202.194 267.888,136.5l282.959,-91.938Z" style="fill:none;fill-rule:nonzero;stroke:#15488a;stroke-width:9.38px;"/><path d="M43.753,459.397l-27.128,0l-0,17.504l30.3,-0l-0,13.671l-46.925,0l-0,-73.725l45.394,0l-0,13.672l-28.769,0l-0,15.316l27.128,-0l0,13.562Z" style="fill:#15488a;fill-rule:nonzero;"/><path d="M120.645,462.351c-0.328,-8.859 -0.656,-19.471 -0.656,-30.3l-0.219,0c-2.406,9.407 -5.468,19.907 -8.312,28.55l-8.972,28.769l-13.016,0l-7.875,-28.55c-2.406,-8.64 -4.812,-19.034 -6.672,-28.769l-0.221,0c-0.329,9.954 -0.763,21.329 -1.2,30.519l-1.425,28.003l-15.422,0l4.703,-73.728l22.206,0l7.219,24.613c2.406,8.531 4.594,17.722 6.234,26.362l0.441,0c1.965,-8.531 4.484,-18.269 7,-26.472l7.765,-24.503l21.879,0l3.937,73.728l-16.191,0l-1.203,-28.222Z" style="fill:#15488a;fill-rule:nonzero;"/><path d="M204.863,488.494c-2.953,1.422 -9.956,3.172 -18.815,3.172c-25.485,0 -38.613,-15.972 -38.613,-36.972c0,-25.05 17.941,-38.94 40.253,-38.94c8.644,-0 15.206,1.75 18.16,3.172l-3.5,13.234c-3.282,-1.422 -7.985,-2.734 -14.004,-2.734c-13.125,-0 -23.406,7.984 -23.406,24.393c0,14.657 8.75,23.957 23.519,23.957c5.141,-0 10.609,-0.988 14,-2.41l2.406,13.128Z" style="fill:#15488a;fill-rule:nonzero;"/><path d="M266.768,488.494c-2.953,1.422 -9.956,3.172 -18.816,3.172c-25.484,0 -38.612,-15.972 -38.612,-36.972c-0,-25.05 17.941,-38.94 40.253,-38.94c8.644,-0 15.206,1.75 18.159,3.172l-3.5,13.234c-3.281,-1.422 -7.984,-2.734 -14.003,-2.734c-13.125,-0 -23.406,7.984 -23.406,24.393c0,14.657 8.75,23.957 23.519,23.957c5.14,-0 10.609,-0.988 14,-2.41l2.406,13.128Z" style="fill:#15488a;fill-rule:nonzero;"/><path d="M361.484,487.182c-5.141,1.75 -14.875,4.156 -24.61,4.156c-13.456,0 -23.19,-3.39 -29.975,-9.843c-6.672,-6.457 -10.39,-16.082 -10.39,-26.91c0.109,-24.503 17.94,-38.503 42.115,-38.503c9.516,0 16.844,1.859 20.453,3.5l-3.5,13.453c-4.046,-1.859 -8.968,-3.172 -17.065,-3.172c-13.891,0 -24.5,7.875 -24.5,23.847c-0,15.313 9.625,24.172 23.297,24.172c3.722,0 6.784,-0.434 8.093,-0.984l0,-15.532l-11.375,0l0,-13.015l27.457,-0l-0,38.831Z" style="fill:#15488a;fill-rule:nonzero;"/><rect x="373.947" y="412.799" width="16.625" height="77.775" style="fill:#15488a;"/><path d="M429.073,479.853c6.565,0 10.612,-6.453 10.612,-16.081c0,-7.875 -3.062,-15.969 -10.612,-15.969c-7.875,0 -10.938,8.094 -10.938,16.078c0,9.079 3.828,15.972 10.828,15.972l0.11,0Zm-0.438,11.922c-15.643,0 -27.675,-10.281 -27.675,-27.565c0,-17.282 11.378,-28.332 28.66,-28.332c16.3,0 27.237,11.269 27.237,27.457c0,19.471 -13.89,28.44 -28.112,28.44l-0.11,0Z" style="fill:#15488a;fill-rule:nonzero;"/><path d="M483.759,467.82c-0,1.094 0.109,2.078 0.328,2.953c1.094,4.375 4.922,7.875 9.737,7.875c7.11,0 11.485,-5.468 11.485,-15.093c-0,-8.313 -3.719,-14.875 -11.485,-14.875c-4.484,-0 -8.643,3.387 -9.737,8.203c-0.219,0.981 -0.328,1.968 -0.328,3.062l-0,7.875Zm-16.625,-55.022l16.625,0l-0,30.628l0.219,0c3.171,-4.593 8.753,-7.546 16.19,-7.546c12.797,-0 22.094,10.609 21.988,27.018c-0,19.25 -12.144,28.878 -24.397,28.878c-6.235,0 -12.36,-2.296 -16.078,-8.643l-0.219,-0l-0.656,7.44l-14.11,0c0.219,-3.5 0.438,-9.956 0.438,-15.972l-0,-61.803Z" style="fill:#15488a;fill-rule:nonzero;"/><path d="M560.979,465.304c-8.75,-0 -15.535,2.078 -15.535,8.422c0,4.269 2.844,6.347 6.563,6.347c4.05,-0 7.55,-2.735 8.644,-6.125c0.218,-0.878 0.328,-1.863 0.328,-2.847l-0,-5.797Zm16.081,12.362c0,5.029 0.216,9.954 0.872,12.907l-14.984,-0l-0.985,-5.36l-0.328,0c-3.5,4.266 -8.972,6.563 -15.312,6.563c-10.832,-0 -17.285,-7.875 -17.285,-16.41c0,-13.89 12.469,-20.453 31.394,-20.453l-0,-0.656c-0,-2.844 -1.531,-6.894 -9.738,-6.894c-5.468,0 -11.265,1.86 -14.765,3.941l-3.063,-10.613c3.719,-2.078 11.047,-4.812 20.785,-4.812c17.828,-0 23.409,10.5 23.409,23.081l0,18.706Z" style="fill:#15488a;fill-rule:nonzero;"/><rect x="590.287" y="412.799" width="16.625" height="77.775" style="fill:#15488a;"/><rect x="211.684" y="524.265" width="11.531" height="63.184" style="fill:#15488a;"/><path d="M236.527,555.386c-0,-5.25 -0.094,-9.656 -0.375,-13.594l10.125,0l0.562,6.844l0.281,-0c1.969,-3.563 6.938,-7.875 14.532,-7.875c7.965,-0 16.215,5.159 16.215,19.594l0,27.093l-11.528,0l0,-25.781c0,-6.562 -2.437,-11.531 -8.719,-11.531c-4.593,-0 -7.781,3.281 -9,6.75c-0.375,1.034 -0.468,2.437 -0.468,3.75l-0,26.812l-11.625,0l-0,-32.062Z" style="fill:#15488a;fill-rule:nonzero;"/><path d="M320.711,560.824c-0,-0.938 -0.094,-2.063 -0.281,-3c-1.032,-4.5 -4.688,-8.156 -9.938,-8.156c-7.406,-0 -11.528,6.562 -11.528,15.093c0,8.344 4.122,14.438 11.434,14.438c4.688,-0 8.816,-3.191 9.938,-8.156c0.281,-1.035 0.375,-2.157 0.375,-3.378l-0,-6.841Zm11.531,-39.934l0,53.715c0,4.685 0.188,9.747 0.375,12.844l-10.312,-0l-0.469,-7.219l-0.188,0c-2.718,5.06 -8.25,8.25 -14.906,8.25c-10.872,0 -19.497,-9.281 -19.497,-23.344c-0.093,-15.281 9.466,-24.375 20.438,-24.375c6.278,0 10.778,2.625 12.84,6l0.188,0l-0,-25.871l11.531,-0Z" style="fill:#15488a;fill-rule:nonzero;"/><path d="M344.619,541.793l11.625,-0l-0,45.653l-11.625,-0l-0,-45.653Zm12.281,-12.75c-0,3.468 -2.531,6.19 -6.563,6.19c-3.843,0 -6.375,-2.722 -6.375,-6.19c0,-3.563 2.625,-6.282 6.469,-6.282c3.938,0 6.375,2.719 6.469,6.282" style="fill:#15488a;fill-rule:nonzero;"/><path d="M375.931,541.793l7.406,23.157c1.313,4.028 2.25,7.684 3.094,11.434l0.281,-0c0.844,-3.75 1.875,-7.313 3.094,-11.434l7.219,-23.157l12.184,0l-17.434,45.653l-11.344,0l-16.969,-45.653l12.469,0Z" style="fill:#15488a;fill-rule:nonzero;"/><path d="M416.244,541.793l11.625,-0l-0,45.653l-11.625,-0l-0,-45.653Zm12.278,-12.75c-0,3.468 -2.531,6.19 -6.56,6.19c-3.843,0 -6.375,-2.722 -6.375,-6.19c0,-3.563 2.625,-6.282 6.469,-6.282c3.935,0 6.375,2.719 6.466,6.282" style="fill:#15488a;fill-rule:nonzero;"/><path d="M470.805,560.824c0,-0.938 -0.093,-2.063 -0.281,-3c-1.031,-4.5 -4.687,-8.156 -9.937,-8.156c-7.407,-0 -11.532,6.562 -11.532,15.093c0,8.344 4.125,14.438 11.438,14.438c4.687,-0 8.812,-3.191 9.937,-8.156c0.282,-1.035 0.375,-2.157 0.375,-3.378l0,-6.841Zm11.528,-39.934l0,53.715c0,4.685 0.191,9.747 0.379,12.844l-10.313,-0l-0.469,-7.219l-0.187,0c-2.719,5.06 -8.25,8.25 -14.906,8.25c-10.875,0 -19.5,-9.281 -19.5,-23.344c-0.094,-15.281 9.468,-24.375 20.437,-24.375c6.281,0 10.781,2.625 12.844,6l0.187,0l0,-25.871l11.528,-0Z" style="fill:#15488a;fill-rule:nonzero;"/><path d="M535.585,573.761c-0,5.437 0.187,9.937 0.375,13.687l-10.125,0l-0.563,-6.937l-0.187,-0c-1.969,3.281 -6.469,7.968 -14.625,7.968c-8.344,0 -15.938,-4.968 -15.938,-19.872l0,-26.812l11.532,-0l-0,24.841c-0,7.593 2.437,12.468 8.531,12.468c4.594,0 7.594,-3.281 8.812,-6.187c0.375,-1.031 0.657,-2.25 0.657,-3.563l-0,-27.559l11.531,-0l-0,31.966Z" style="fill:#15488a;fill-rule:nonzero;"/><path d="M572.241,565.136c-8.156,-0.187 -15.937,1.594 -15.937,8.528c-0,4.503 2.906,6.566 6.562,6.566c4.594,-0 7.969,-3 9,-6.284c0.281,-0.841 0.375,-1.779 0.375,-2.529l0,-6.281Zm1.5,22.313l-0.75,-5.063l-0.281,0c-2.813,3.56 -7.594,6.094 -13.5,6.094c-9.188,-0 -14.344,-6.656 -14.344,-13.594c0,-11.531 10.219,-17.344 27.094,-17.25l-0,-0.75c-0,-3 -1.219,-7.965 -9.281,-7.965c-4.5,-0 -9.188,1.403 -12.282,3.371l-2.25,-7.5c3.375,-2.062 9.282,-4.031 16.5,-4.031c14.625,0 18.844,9.281 18.844,19.219l0,16.5c0,4.125 0.188,8.153 0.656,10.969l-10.406,-0Z" style="fill:#15488a;fill-rule:nonzero;"/><rect x="595.678" y="520.89" width="11.625" height="66.559" style="fill:#15488a;"/><path d="M88.495,657.418l-3.938,-13.406c-1.031,-3.75 -2.156,-8.531 -3.093,-12.184l-0.281,-0c-0.844,3.747 -1.875,8.528 -2.813,12.184l-3.844,13.406l13.969,0Zm-16.031,10.688l-4.406,16.215l-14.813,0l19.313,-63.181l18.656,0l19.684,63.181l-15.372,0l-4.875,-16.215l-18.187,-0Z" style="fill:#15488a;fill-rule:nonzero;"/><path d="M152.055,683.105c-2.531,1.219 -7.312,2.153 -12.75,2.153c-14.809,0 -24.281,-9.094 -24.281,-23.434c0,-13.313 9.188,-24.282 26.25,-24.282c3.75,0 7.875,0.657 10.875,1.782l-2.25,10.593c-1.687,-0.75 -4.219,-1.406 -7.969,-1.406c-7.5,0 -12.375,5.344 -12.278,12.75c0,8.438 5.622,12.844 12.56,12.844c3.375,-0 6,-0.566 8.156,-1.5l1.687,10.5Z" style="fill:#15488a;fill-rule:nonzero;"/><path d="M193.399,683.105c-2.531,1.219 -7.312,2.153 -12.75,2.153c-14.809,0 -24.281,-9.094 -24.281,-23.434c-0,-13.313 9.187,-24.282 26.25,-24.282c3.75,0 7.875,0.657 10.875,1.782l-2.25,10.593c-1.688,-0.75 -4.219,-1.406 -7.969,-1.406c-7.5,0 -12.375,5.344 -12.278,12.75c-0,8.438 5.622,12.844 12.559,12.844c3.375,-0 6,-0.566 8.157,-1.5l1.687,10.5Z" style="fill:#15488a;fill-rule:nonzero;"/><path d="M201.274,653.573c0,-6.75 -0.094,-11.153 -0.375,-15.091l12.188,0l0.559,8.529l0.378,-0c2.344,-6.75 7.875,-9.56 12.375,-9.56c1.309,0 1.966,0.091 3,0.281l0,13.407c-1.125,-0.191 -2.253,-0.375 -3.844,-0.375c-5.25,-0 -8.812,2.718 -9.753,7.215c-0.184,0.938 -0.278,1.969 -0.278,3.188l0,23.156l-14.25,0l0,-30.75Z" style="fill:#15488a;fill-rule:nonzero;"/><path d="M263.991,656.197c-0,-3.465 -1.5,-9.281 -7.969,-9.281c-6.094,0 -8.531,5.535 -8.906,9.281l16.875,0Zm-16.781,9.75c0.468,5.907 6.281,8.719 12.937,8.719c4.875,0 8.813,-0.656 12.656,-1.969l1.875,9.657c-4.687,1.968 -10.406,2.906 -16.593,2.906c-15.563,-0 -24.469,-9 -24.469,-23.344c-0,-11.625 7.316,-24.465 23.156,-24.465c14.813,-0 20.438,11.528 20.438,22.871c-0,2.441 -0.282,4.594 -0.469,5.625l-29.531,0Z" style="fill:#15488a;fill-rule:nonzero;"/><path d="M315.929,657.98c-0,-0.844 -0,-1.781 -0.188,-2.625c-0.843,-3.844 -3.937,-6.938 -8.343,-6.938c-6.563,0 -9.844,5.813 -9.844,13.032c-0,7.687 3.844,12.562 9.75,12.562c4.125,0 7.5,-2.815 8.344,-6.847c0.187,-0.934 0.281,-2.059 0.281,-3.184l-0,-6Zm14.25,-40.309l-0,52.965c-0,5.156 0.187,10.591 0.375,13.688l-12.656,-0l-0.563,-6.657l-0.281,0c-2.813,5.063 -8.438,7.688 -14.344,7.688c-10.875,-0 -19.594,-9.281 -19.594,-23.531c-0.093,-15.372 9.563,-24.372 20.532,-24.372c5.718,-0 10.031,2.059 12.093,5.153l0.188,-0l-0,-24.934l14.25,-0Z" style="fill:#15488a;fill-rule:nonzero;"/><path d="M341.616,638.483l14.25,0l-0,45.841l-14.25,-0l-0,-45.841Zm7.031,-5.628c-4.5,0 -7.406,-3.187 -7.406,-7.122c-0,-4.034 3,-7.128 7.593,-7.128c4.594,0 7.407,3.094 7.5,7.128c0,3.935 -2.906,7.122 -7.593,7.122l-0.094,0Z" style="fill:#15488a;fill-rule:nonzero;"/><path d="M383.24,626.013l0,12.468l10.219,0l-0,10.5l-10.219,0l0,16.591c0,5.534 1.406,8.063 5.625,8.063c1.969,-0 2.906,-0.094 4.219,-0.375l0.094,10.781c-1.782,0.656 -5.25,1.219 -9.188,1.219c-4.594,-0 -8.438,-1.594 -10.781,-3.938c-2.625,-2.719 -3.938,-7.125 -3.938,-13.591l0,-18.75l-6.094,0l0,-10.5l6.094,0l0,-8.628l13.969,-3.84Z" style="fill:#15488a;fill-rule:nonzero;"/><path d="M426.082,662.667c-7.5,0 -13.313,1.782 -13.313,7.219c0,3.653 2.441,5.438 5.629,5.438c3.465,-0 6.465,-2.344 7.403,-5.25c0.187,-0.75 0.281,-1.594 0.281,-2.438l-0,-4.969Zm13.781,10.594c0,4.313 0.188,8.531 0.75,11.063l-12.844,-0l-0.843,-4.594l-0.282,-0c-3,3.656 -7.687,5.625 -13.125,5.625c-9.278,-0 -14.809,-6.75 -14.809,-14.063c0,-11.906 10.688,-17.531 26.903,-17.531l0,-0.562c0,-2.438 -1.312,-5.907 -8.344,-5.907c-4.687,0 -9.656,1.594 -12.656,3.375l-2.622,-9.093c3.188,-1.778 9.466,-4.122 17.81,-4.122c15.281,-0 20.062,9 20.062,19.778l0,16.031Z" style="fill:#15488a;fill-rule:nonzero;"/><path d="M466.394,626.013l0,12.468l10.219,0l-0,10.5l-10.219,0l0,16.591c0,5.534 1.406,8.063 5.625,8.063c1.969,-0 2.906,-0.094 4.219,-0.375l0.094,10.781c-1.782,0.656 -5.25,1.219 -9.188,1.219c-4.594,-0 -8.437,-1.594 -10.781,-3.938c-2.625,-2.719 -3.938,-7.125 -3.938,-13.591l0,-18.75l-6.093,0l-0,-10.5l6.093,0l0,-8.628l13.969,-3.84Z" style="fill:#15488a;fill-rule:nonzero;"/><path d="M484.862,638.483l14.25,0l0,45.841l-14.25,-0l0,-45.841Zm7.032,-5.628c-4.5,0 -7.406,-3.187 -7.406,-7.122c-0,-4.034 2.999,-7.128 7.593,-7.128c4.594,0 7.407,3.094 7.5,7.128c0,3.935 -2.906,7.122 -7.594,7.122l-0.093,0Z" style="fill:#15488a;fill-rule:nonzero;"/><path d="M532.017,675.137c5.625,-0 9.094,-5.535 9.094,-13.781c0,-6.75 -2.625,-13.688 -9.094,-13.688c-6.75,0 -9.375,6.938 -9.375,13.781c0,7.778 3.282,13.688 9.282,13.688l0.093,-0Zm-0.375,10.219c-13.406,-0 -23.718,-8.816 -23.718,-23.625c-0,-14.813 9.75,-24.282 24.562,-24.282c13.969,0 23.344,9.657 23.344,23.532c-0,16.687 -11.906,24.375 -24.094,24.375l-0.094,-0Z" style="fill:#15488a;fill-rule:nonzero;"/><path d="M564.644,653.106c0,-5.719 -0.187,-10.5 -0.375,-14.625l12.375,0l0.656,6.372l0.282,0c1.875,-3 6.465,-7.403 14.153,-7.403c9.375,-0 16.406,6.281 16.406,19.778l-0,27.094l-14.25,-0l-0,-25.406c-0,-5.904 -2.059,-9.935 -7.216,-9.935c-3.937,0 -6.281,2.719 -7.315,5.344c-0.372,0.934 -0.466,2.247 -0.466,3.559l0,26.438l-14.25,-0l0,-31.216Z" style="fill:#15488a;fill-rule:nonzero;"/><path d="M846.513,516.686l-111.634,0l0,-41.965l118.559,-0l0,-61.928l-195.565,-0l-0,274.606l201.678,-0l-0,-61.928l-124.672,-0l0,-46.86l111.634,0l0,-61.925Zm39.113,170.713l77.006,-0l0,-274.606l-77.006,-0l-0,274.606Zm272.562,-66.819l20.372,66.819l85.56,-0l-92.485,-274.606l-105.115,-0l-86.785,274.606l81.078,-0l17.519,-66.819l79.856,0Zm-68.853,-56.225l13.038,-48.075c4.481,-15.89 8.556,-35.856 13.037,-51.744l0.816,0c4.887,15.888 10.591,35.854 15.481,51.335l14.666,48.484l-57.038,0Z" style="fill:#f99d1b;fill-rule:nonzero;"/><path d="M1274.86,831.405c4.487,2.516 11.047,4.594 18.159,4.594c5.141,0.109 9.844,-1.859 9.844,-6.234c0,-3.613 -3.281,-5.691 -9.625,-8.972c-7.112,-3.825 -15.534,-9.513 -15.534,-19.688c-0,-15.64 13.672,-24.94 30.847,-24.94c9.734,-0 14.987,1.859 18.484,3.5l-5.684,15.643c-2.519,-1.206 -7.988,-3.284 -14.113,-3.062c-6.672,-0 -9.844,2.625 -9.844,5.797c0,3.5 4.922,5.797 10.5,8.968c8.969,4.594 14.879,10.613 14.879,19.363c-0,17.941 -15.207,25.703 -31.504,25.703c-11.487,-0.216 -18.925,-2.844 -22.534,-5.359l6.125,-15.313Z" style="fill:#15488a;fill-rule:nonzero;"/><path d="M1381.06,821.124l-25.926,-0l-2.734,14l29.206,-0l-3.062,15.862l-47.803,0l14.003,-73.728l46.272,0l-3.066,15.863l-27.562,-0l-2.41,12.25l26.144,-0l-3.063,15.753Z" style="fill:#15488a;fill-rule:nonzero;"/><path d="M1391.78,850.985l13.891,-73.728l22.206,0l6.675,22.316c2.844,9.737 5.031,18.268 6.778,27.128l0.331,-0c0.325,-7.985 1.529,-16.844 3.5,-27.891l4.047,-21.553l17.391,0l-13.891,73.728l-19.581,0l-7.437,-24.065c-3.063,-10.391 -5.25,-17.719 -7.329,-27.563l-0.331,0c-0.872,7.325 -2.844,19.031 -5.137,31.281l-3.832,20.347l-17.281,0Z" style="fill:#15488a;fill-rule:nonzero;"/><path d="M1500.61,777.258l-14,73.728l-18.6,-0l14.003,-73.728l18.597,-0Z" style="fill:#15488a;fill-rule:nonzero;"/><path d="M1539.76,836.654c3.828,-0 7.547,-1.75 10.281,-4.484c5.36,-5.357 8.204,-16.844 8.204,-24.613c-0,-8.641 -3.282,-15.969 -12.907,-15.969c-4.265,0 -7.987,1.75 -10.94,4.703c-5.25,5.36 -8.313,16.079 -8.313,24.394c0,9.628 4.375,15.969 13.566,15.969l0.109,-0Zm-2.844,15.534c-19.143,0 -30.737,-13.237 -30.737,-31.065c-0,-13.453 4.922,-26.144 13.453,-34.347c7.109,-6.785 16.738,-10.722 27.894,-10.722c19.362,-0 30.628,12.581 30.628,31.069c-0,13.562 -4.703,26.25 -13.019,34.347c-7.106,6.781 -16.734,10.718 -28.109,10.718l-0.11,0Z" style="fill:#15488a;fill-rule:nonzero;"/><path d="M1610.09,809.31l5.797,0c7.328,0 13.018,-4.159 13.018,-10.612c0,-5.032 -4.593,-7.328 -9.956,-7.328c-2.625,-0 -4.372,0.218 -5.469,0.437l-3.39,17.503Zm-12.578,-30.631c5.14,-1.203 13.234,-1.969 21.331,-1.969c6.781,0 14.437,0.656 20.125,3.831c5.25,2.735 9.297,7.657 9.297,15.313c-0,10.937 -6.781,17.284 -16.297,20.562l-0.109,0.441c4.046,2.078 5.796,6.563 6.562,12.906c0.984,7.441 1.641,18.157 3.063,21.222l-19.144,0c-0.656,-2.187 -1.419,-7.878 -2.294,-17.281c-0.656,-8.425 -3.503,-10.503 -9.191,-10.503l-3.39,-0l-5.253,27.784l-18.485,0l13.785,-72.306Z" style="fill:#15488a;fill-rule:nonzero;"/><path d="M924.764,926.248c1.312,0.215 2.843,0.437 5.578,0.437c8.203,0 13.456,-5.359 13.456,-11.487c0,-6.344 -4.597,-8.094 -9.734,-8.094c-2.628,-0 -4.597,0.109 -5.691,0.328l-3.609,18.816Zm-12.144,-31.944c4.922,-1.2 12.909,-1.969 20.566,-1.969c6.456,0 14.328,0.769 20.237,4.488c5.578,3.39 9.078,9.078 9.078,16.734c0,9.738 -4.265,16.847 -10.5,21.441c-6.125,4.597 -14.769,6.781 -24.065,6.781c-2.516,-0 -4.594,-0.328 -5.907,-0.438l-4.921,25.269l-18.16,0l13.672,-72.306Z" style="fill:#15488a;fill-rule:nonzero;"/><path d="M991.811,924.935l5.797,0c7.328,0 13.018,-4.159 13.018,-10.612c0,-5.032 -4.594,-7.328 -9.956,-7.328c-2.625,-0 -4.372,0.218 -5.469,0.437l-3.39,17.503Zm-12.578,-30.631c5.14,-1.203 13.234,-1.969 21.328,-1.969c6.784,0 14.44,0.656 20.128,3.831c5.25,2.735 9.297,7.657 9.297,15.313c-0,10.937 -6.782,17.284 -16.297,20.562l-0.11,0.441c4.047,2.078 5.797,6.563 6.563,12.906c0.984,7.441 1.64,18.157 3.062,21.222l-19.14,0c-0.66,-2.187 -1.422,-7.878 -2.297,-17.281c-0.656,-8.425 -3.503,-10.503 -9.191,-10.503l-3.39,-0l-5.253,27.784l-18.485,0l13.785,-72.306Z" style="fill:#15488a;fill-rule:nonzero;"/><path d="M1076.8,935.217l-0.766,-13.566c-0.331,-4.156 -0.547,-10.281 -0.987,-14.878l-0.216,0c-1.862,4.597 -3.94,10.831 -5.797,14.988l-5.69,13.456l13.456,-0Zm-18.706,14.112l-7.328,17.282l-20.016,-0l35.003,-73.729l24.394,0l7.872,73.729l-19.688,-0l-0.875,-17.282l-19.362,0Z" style="fill:#15488a;fill-rule:nonzero;"/><path d="M1161.34,964.642c-3.716,1.75 -10.391,3.059 -19.469,3.059c-20.019,0 -33.803,-11.922 -33.803,-31.503c0,-17.828 8.206,-30.406 19.909,-37.516c7.657,-4.812 16.407,-6.89 26.691,-6.89c7.878,-0 14.003,1.747 16.191,2.844l-4.813,15.203c-1.972,-0.766 -6.675,-2.078 -12.909,-2.078c-5.797,-0 -11.047,1.531 -15.094,4.596c-5.8,4.372 -9.628,11.919 -9.628,21.763c-0,11.159 6.89,17.612 18.378,17.612c5.031,0 9.734,-0.765 13.234,-2.187l1.313,15.097Z" style="fill:#15488a;fill-rule:nonzero;"/><path d="M1196.34,909.182l-18.487,0l3.175,-16.3l56.003,0l-3.172,16.3l-18.815,0l-10.825,57.428l-18.6,0l10.721,-57.428Z" style="fill:#15488a;fill-rule:nonzero;"/><path d="M1266.45,892.883l-14.001,73.728l-18.6,-0l14.004,-73.728l18.596,-0Z" style="fill:#15488a;fill-rule:nonzero;"/><path d="M1292.81,909.182l-18.488,0l3.175,-16.3l56.003,0l-3.172,16.3l-18.815,0l-10.825,57.428l-18.6,0l10.722,-57.428Z" style="fill:#15488a;fill-rule:nonzero;"/><path d="M1362.91,892.883l-14,73.728l-18.6,-0l14.003,-73.728l18.597,-0Z" style="fill:#15488a;fill-rule:nonzero;"/><path d="M1402.07,952.279c3.828,-0 7.547,-1.75 10.281,-4.484c5.359,-5.357 8.203,-16.844 8.203,-24.613c0,-8.641 -3.281,-15.969 -12.906,-15.969c-4.266,0 -7.988,1.75 -10.941,4.703c-5.25,5.36 -8.312,16.079 -8.312,24.394c-0,9.628 4.375,15.969 13.565,15.969l0.11,-0Zm-2.844,15.534c-19.144,0 -30.738,-13.237 -30.738,-31.065c0,-13.453 4.922,-26.144 13.454,-34.347c7.109,-6.785 16.737,-10.722 27.893,-10.722c19.363,-0 30.628,12.581 30.628,31.069c0,13.562 -4.703,26.25 -13.018,34.347c-7.107,6.781 -16.735,10.718 -28.11,10.718l-0.109,0Z" style="fill:#15488a;fill-rule:nonzero;"/><path d="M1445.92,966.61l13.891,-73.728l22.206,0l6.675,22.316c2.844,9.737 5.032,18.268 6.778,27.128l0.332,-0c0.325,-7.985 1.528,-16.844 3.5,-27.891l4.046,-21.553l17.391,0l-13.891,73.728l-19.581,0l-7.437,-24.065c-3.063,-10.391 -5.25,-17.719 -7.328,-27.563l-0.332,0c-0.872,7.325 -2.843,19.031 -5.137,31.281l-3.831,20.347l-17.282,0Z" style="fill:#15488a;fill-rule:nonzero;"/><path d="M1572.8,936.749l-25.925,-0l-2.734,14l29.206,-0l-3.062,15.862l-47.803,0l14.003,-73.728l46.272,0l-3.066,15.863l-27.562,-0l-2.41,12.25l26.144,-0l-3.063,15.753Z" style="fill:#15488a;fill-rule:nonzero;"/><path d="M1609.99,924.935l5.797,0c7.328,0 13.019,-4.159 13.019,-10.612c-0,-5.032 -4.594,-7.328 -9.957,-7.328c-2.625,-0 -4.372,0.218 -5.468,0.437l-3.391,17.503Zm-12.578,-30.631c5.14,-1.203 13.234,-1.969 21.331,-1.969c6.781,0 14.438,0.656 20.125,3.831c5.25,2.735 9.297,7.657 9.297,15.313c0,10.937 -6.781,17.284 -16.297,20.562l-0.109,0.441c4.047,2.078 5.797,6.563 6.562,12.906c0.985,7.441 1.641,18.157 3.063,21.222l-19.144,0c-0.656,-2.187 -1.419,-7.878 -2.294,-17.281c-0.656,-8.425 -3.503,-10.503 -9.19,-10.503l-3.391,-0l-5.253,27.784l-18.484,0l13.784,-72.306Z" style="fill:#15488a;fill-rule:nonzero;"/></g></svg>