<?xml version="1.0" encoding="UTF-8"?><svg id="Layer_1" xmlns="http://www.w3.org/2000/svg" viewBox="0 0 1080 1080"><defs><style>.cls-1{fill:#007f61;}.cls-2{fill:#50ada6;}</style></defs><path class="cls-1" d="m186.62,742.71h39.3c25.55,0,39.79,13.91,39.79,32.35,0,9.06-4.69,19.25-14.39,23.61,11.64,3.56,19.57,13.75,19.57,25.72,0,20.54-12.94,31.54-42.86,31.54h-41.4v-113.21Zm38.49,19.41h-15.2v28.63h15.2c12.61,0,17.31-5.34,17.31-14.39s-4.69-14.23-17.31-14.23Zm-15.2,48.03v26.36h20.05c12.29,0,16.82-4.85,16.82-13.1s-4.53-13.26-16.82-13.26h-20.05Z"/><path class="cls-1" d="m328.3,742.71h69.54v19.73h-46.25v30.4h38.82v19.73h-38.82v23.61h47.71v19.73h-71v-113.21Z"/><path class="cls-1" d="m456.71,771.5c0-18.28,12.94-30.73,36.39-30.73,10.84,0,22,2.91,30.41,7.92l-7.12,18.44c-5.82-3.88-13.58-6.31-21.02-6.31-10.19,0-15.04,3.72-15.04,9.54,0,6.31,4.2,10.11,19.57,17.14,19.81,9.06,29.27,19.08,29.27,36.07,0,20.86-14.23,34.29-40.92,34.29-11.81,0-24.42-3.4-33.96-9.22l7.12-18.76c7.28,5.01,17.14,7.92,25.88,7.92,11.32,0,18.27-4.53,18.27-12.37,0-8.33-5.9-13.02-19.81-19.08-22.48-9.79-29.03-20.22-29.03-34.85Z"/><path class="cls-1" d="m610.68,742.71v113.21h-23.29v-113.21h23.29Z"/><path class="cls-1" d="m712.4,855.92h-37.84v-113.21h37.84c36.71,0,61.46,20.7,61.46,56.61s-24.74,56.61-61.46,56.61Zm.16-93.48h-14.72v73.75h14.72c21.19,0,37.68-12.29,37.68-36.71s-16.5-37.04-37.68-37.04Z"/><path class="cls-1" d="m822.38,742.71h69.54v19.73h-46.25v30.4h38.82v19.73h-38.82v23.61h47.71v19.73h-71v-113.21Z"/><path class="cls-2" d="m539.29,642.15h0c0-116.12,94.13-210.25,210.25-210.25h0c0,116.12-94.13,210.25-210.25,210.25Z"/><path class="cls-2" d="m540.28,642.15h0c0-116.12-94.13-210.25-210.25-210.25h0c0,116.12,94.13,210.25,210.25,210.25Z"/><circle class="cls-1" cx="539.78" cy="327.02" r="104.88"/><path class="cls-2" d="m749.54,431.89c-57.92,0-104.88-46.96-104.88-104.88s46.96-104.88,104.88-104.88v209.76Z"/><path class="cls-2" d="m330.03,222.14c57.92,0,104.88,46.96,104.88,104.88s-46.96,104.88-104.88,104.88v-209.76Z"/></svg>